<svg width="941" height="214" viewBox="0 0 941 214" fill="none" xmlns="http://www.w3.org/2000/svg">
<path d="M438.957 163.937C436.464 162.883 433.783 162.342 431.076 162.346C428.279 162.346 425.617 162.911 423.195 163.937L430.433 151.367C430.498 151.255 430.591 151.163 430.703 151.098C430.814 151.034 430.941 151 431.07 151C431.199 151 431.326 151.034 431.438 151.098C431.549 151.163 431.642 151.255 431.707 151.367L438.95 163.937H438.957Z" fill="white"/>
<path d="M421.277 164.879C418.884 166.208 416.785 168.006 415.104 170.166C413.423 172.326 412.196 174.803 411.496 177.449L406.114 163.708C406.066 163.588 406.051 163.457 406.071 163.329C406.09 163.201 406.142 163.081 406.222 162.979C406.303 162.878 406.408 162.8 406.529 162.752C406.649 162.705 406.78 162.69 406.908 162.709L421.277 164.879Z" fill="white"/>
<path d="M415.133 195.181L400.52 190.66C400.396 190.621 400.285 190.551 400.197 190.456C400.11 190.362 400.048 190.246 400.019 190.12C399.99 189.994 399.994 189.862 400.032 189.739C400.069 189.615 400.138 189.503 400.233 189.415L411.088 179.317C410.908 180.419 410.817 181.534 410.817 182.651C410.817 187.381 412.43 191.733 415.134 195.181H415.133Z" fill="white"/>
<path d="M430.784 202.955L417.971 211.707C417.865 211.78 417.741 211.825 417.611 211.835C417.482 211.845 417.353 211.821 417.236 211.764C417.119 211.708 417.02 211.621 416.947 211.514C416.875 211.406 416.832 211.282 416.824 211.152L415.68 195.829C417.544 198.025 419.856 199.796 422.461 201.024C425.066 202.252 427.904 202.909 430.784 202.949V202.955Z" fill="white"/>
<path d="M446.44 195.892L445.302 211.137C445.287 211.331 445.196 211.511 445.048 211.639C444.901 211.766 444.709 211.83 444.515 211.816C444.386 211.808 444.261 211.765 444.153 211.693L431.367 202.956C434.237 202.918 437.066 202.268 439.665 201.05C442.264 199.832 444.575 198.074 446.44 195.892Z" fill="white"/>
<path d="M461.628 190.614L447.078 195.114C449.849 191.551 451.35 187.165 451.342 182.652C451.342 181.501 451.243 180.371 451.061 179.271L461.911 189.363C462.327 189.75 462.167 190.445 461.628 190.609V190.614Z" fill="white"/>
<path d="M456.046 163.735L450.672 177.472C449.974 174.829 448.751 172.354 447.076 170.194C445.401 168.034 443.308 166.234 440.922 164.9L455.252 162.734C455.38 162.715 455.511 162.73 455.631 162.777C455.752 162.825 455.857 162.903 455.938 163.004C456.018 163.106 456.071 163.226 456.09 163.354C456.109 163.482 456.094 163.613 456.046 163.733V163.735Z" fill="white"/>
<path d="M431.083 207.339C430.371 207.34 429.667 207.481 429.01 207.754C428.353 208.027 427.756 208.427 427.254 208.93C426.751 209.434 426.353 210.032 426.081 210.69C425.81 211.347 425.671 212.052 425.672 212.764H436.5C436.501 212.052 436.362 211.347 436.091 210.69C435.819 210.032 435.421 209.434 434.918 208.93C434.416 208.427 433.819 208.027 433.162 207.754C432.505 207.481 431.801 207.34 431.089 207.339H431.083Z" fill="white"/>
<path d="M450.87 198.449C449.974 199.575 449.561 201.01 449.721 202.44C449.882 203.87 450.602 205.178 451.725 206.077L458.474 197.592C457.918 197.148 457.28 196.817 456.597 196.62C455.914 196.423 455.198 196.362 454.491 196.442C453.784 196.522 453.1 196.74 452.478 197.085C451.856 197.429 451.308 197.894 450.865 198.45H450.87V198.449Z" fill="white"/>
<path d="M455.302 177.466C455.458 178.16 455.75 178.817 456.161 179.398C456.572 179.979 457.093 180.473 457.695 180.852C458.297 181.232 458.968 181.488 459.67 181.608C460.371 181.727 461.09 181.706 461.783 181.548L459.373 170.963C458.679 171.123 458.023 171.417 457.442 171.83C456.862 172.243 456.369 172.766 455.991 173.369C455.613 173.972 455.357 174.645 455.239 175.347C455.121 176.049 455.142 176.768 455.302 177.462V177.466Z" fill="white"/>
<path d="M442.033 160.867C442.674 161.177 443.37 161.357 444.08 161.396C444.791 161.436 445.502 161.336 446.174 161.1C446.845 160.864 447.463 160.498 447.993 160.023C448.523 159.547 448.953 158.972 449.26 158.33L439.507 153.62C438.882 154.917 438.798 156.409 439.272 157.767C439.747 159.126 440.742 160.241 442.038 160.867H442.031H442.033Z" fill="white"/>
<path d="M419.893 160.867C421.188 160.24 422.181 159.125 422.655 157.766C423.128 156.407 423.043 154.916 422.419 153.62L412.664 158.33C412.972 158.972 413.403 159.546 413.933 160.021C414.463 160.496 415.081 160.861 415.753 161.097C416.424 161.332 417.136 161.432 417.846 161.392C418.556 161.352 419.252 161.172 419.893 160.863V160.867Z" fill="white"/>
<path d="M406.991 177.466C407.311 176.064 407.061 174.592 406.297 173.374C405.532 172.156 404.315 171.291 402.914 170.969L400.508 181.552C401.202 181.71 401.92 181.73 402.622 181.61C403.323 181.49 403.995 181.233 404.597 180.854C405.199 180.474 405.72 179.98 406.131 179.398C406.542 178.817 406.834 178.16 406.991 177.466Z" fill="white"/>
<path d="M404.438 197.592L411.19 206.077C412.314 205.178 413.035 203.87 413.195 202.44C413.355 201.01 412.942 199.575 412.046 198.449C411.603 197.892 411.055 197.428 410.433 197.084C409.81 196.74 409.126 196.522 408.42 196.442C407.713 196.362 406.997 196.423 406.314 196.62C405.631 196.817 404.993 197.148 404.438 197.592Z" fill="white"/>
<path d="M492.811 166.767V182.305H510.999V167.668H519.287V202.51H511.001V189.713H492.811V202.51H484.523V169.011L492.811 166.767ZM534.293 195.098H559.647L557.408 202.506H526.009V167.661H559.652L557.413 175.071H534.297V181.401H555.842V188.808H534.297V195.096L534.293 195.098ZM572.949 167.665V195.098H597.407L595.168 202.506H564.663V167.661H572.949V167.665ZM609.279 167.665V202.507H600.993V167.663H609.279V167.665ZM644.04 167.665H652.326V188.68C652.326 198.829 644.038 203.27 633.334 203.27C622.631 203.27 614.922 198.509 614.922 188.68V169.011L623.21 166.767V188.678C623.21 193.795 626.612 195.729 633.737 195.729C640.86 195.729 644.04 193.663 644.04 188.678V167.661V167.665ZM656.539 178.263C656.539 172.921 660.75 167.665 668.992 167.665H692.643L690.405 175.072H669.08C666.527 175.072 665.27 176.688 665.27 178.258C665.27 179.827 666.57 181.402 669.08 181.402H681.083C689.189 181.402 693.401 186.654 693.401 192.002C693.401 197.348 689.413 202.506 681.083 202.506H656.539L658.778 195.098H680.995C683.506 195.098 684.805 193.617 684.805 192.002C684.805 190.385 683.552 188.768 680.995 188.768H668.992C660.614 188.768 656.539 183.516 656.539 178.263Z" fill="white"/>
<path d="M32.8562 156.747L24.0972 188.586C23.6941 190.052 21.4766 189.768 21.4766 188.251V155.29C21.4766 152.178 24.0681 149.656 27.2649 149.656C31.0703 149.656 33.8404 153.169 32.8562 156.747Z" fill="white"/>
<path d="M48.6834 173.004L28.149 192.159C27.0765 193.16 25.428 191.878 26.1566 190.61L40.1073 166.335C41.7751 163.433 45.6534 162.669 48.306 164.72C50.9684 166.778 51.1473 170.705 48.6834 173.004Z" fill="white"/>
<path d="M46.0929 197.271L30.5097 197.271C29.133 197.271 28.6949 195.355 29.9263 194.72L43.8642 187.526C47.1777 185.816 51.0762 188.303 51.0762 192.127C51.0762 194.968 48.8451 197.271 46.0929 197.271Z" fill="white"/>
<path fill-rule="evenodd" clip-rule="evenodd" d="M9.26238 149.656C11.7495 149.656 13.7656 151.673 13.7656 154.16L13.7656 209.496C13.7656 211.983 11.7495 214 9.26238 214C6.77531 214 4.75914 211.983 4.75914 209.496L4.75914 154.16C4.75914 151.673 6.77531 149.656 9.26238 149.656Z" fill="white"/>
<path fill-rule="evenodd" clip-rule="evenodd" d="M51.0703 209.496C51.0703 211.983 49.0541 214 46.5671 214H9.25449C6.76742 214 4.75125 211.983 4.75125 209.496C4.75125 207.008 6.76742 204.992 9.25449 204.992H46.5671C49.0541 204.992 51.0703 207.008 51.0703 209.496Z" fill="white"/>
<path d="M71.2564 200.826V168.524H77.1082V195.921H91.3353V200.826H71.2564ZM96.1618 200.826V176.599H101.872V200.826H96.1618ZM99.0324 173.161C98.1281 173.161 97.35 172.861 96.698 172.262C96.0461 171.652 95.7201 170.921 95.7201 170.069C95.7201 169.207 96.0461 168.476 96.698 167.877C97.35 167.267 98.1281 166.962 99.0324 166.962C99.9472 166.962 100.725 167.267 101.367 167.877C102.019 168.476 102.345 169.207 102.345 170.069C102.345 170.921 102.019 171.652 101.367 172.262C100.725 172.861 99.9472 173.161 99.0324 173.161ZM118.279 210.416C116.229 210.416 114.467 210.138 112.995 209.58C111.523 209.034 110.34 208.297 109.446 207.372C108.553 206.447 107.932 205.422 107.585 204.296L112.727 203.05C112.959 203.524 113.295 203.992 113.737 204.454C114.178 204.927 114.772 205.316 115.519 205.621C116.276 205.937 117.228 206.095 118.374 206.095C119.993 206.095 121.334 205.7 122.396 204.912C123.458 204.133 123.989 202.851 123.989 201.063V196.473H123.705C123.411 197.062 122.98 197.667 122.412 198.287C121.854 198.907 121.113 199.428 120.188 199.848C119.273 200.269 118.121 200.479 116.733 200.479C114.872 200.479 113.185 200.043 111.67 199.17C110.167 198.287 108.968 196.973 108.074 195.227C107.191 193.471 106.749 191.273 106.749 188.634C106.749 185.974 107.191 183.729 108.074 181.899C108.968 180.059 110.172 178.666 111.686 177.719C113.2 176.762 114.888 176.284 116.749 176.284C118.169 176.284 119.336 176.526 120.251 177.009C121.176 177.483 121.912 178.056 122.459 178.729C123.006 179.391 123.421 180.017 123.705 180.606H124.021V176.599H129.651V201.221C129.651 203.292 129.157 205.006 128.169 206.363C127.18 207.719 125.829 208.734 124.115 209.407C122.401 210.08 120.456 210.416 118.279 210.416ZM118.327 196C119.536 196 120.566 195.705 121.418 195.117C122.27 194.528 122.916 193.681 123.358 192.577C123.8 191.473 124.021 190.148 124.021 188.602C124.021 187.078 123.8 185.742 123.358 184.596C122.927 183.45 122.286 182.561 121.434 181.931C120.593 181.289 119.557 180.968 118.327 180.968C117.054 180.968 115.992 181.3 115.14 181.962C114.289 182.625 113.647 183.534 113.216 184.691C112.785 185.837 112.569 187.141 112.569 188.602C112.569 190.085 112.785 191.384 113.216 192.498C113.658 193.602 114.304 194.465 115.156 195.085C116.018 195.695 117.075 196 118.327 196ZM141.213 186.631V200.826H135.503V168.524H141.087V180.716H141.371C141.938 179.349 142.817 178.271 144.005 177.483C145.203 176.683 146.728 176.284 148.579 176.284C150.261 176.284 151.728 176.636 152.979 177.341C154.231 178.045 155.198 179.076 155.882 180.432C156.576 181.789 156.923 183.445 156.923 185.401V200.826H151.213V186.284C151.213 184.654 150.792 183.387 149.951 182.483C149.12 181.568 147.953 181.11 146.45 181.11C145.44 181.11 144.536 181.331 143.737 181.773C142.948 182.204 142.328 182.83 141.875 183.65C141.434 184.47 141.213 185.464 141.213 186.631ZM174.841 176.599V181.016H160.913V176.599H174.841ZM164.352 170.795H170.061V193.539C170.061 194.307 170.177 194.896 170.408 195.306C170.65 195.705 170.966 195.979 171.355 196.126C171.744 196.273 172.175 196.347 172.648 196.347C173.006 196.347 173.332 196.321 173.626 196.268C173.931 196.215 174.162 196.168 174.32 196.126L175.282 200.59C174.977 200.695 174.541 200.811 173.973 200.937C173.416 201.063 172.732 201.137 171.923 201.158C170.493 201.2 169.204 200.984 168.058 200.511C166.912 200.027 166.003 199.281 165.33 198.271C164.667 197.262 164.341 196 164.352 194.486V170.795ZM193.086 200.826V168.524H204.001C206.535 168.524 208.606 168.981 210.215 169.896C211.835 170.8 213.033 172.025 213.811 173.571C214.59 175.117 214.979 176.841 214.979 178.744C214.979 180.648 214.59 182.377 213.811 183.934C213.044 185.49 211.856 186.731 210.247 187.656C208.638 188.571 206.577 189.028 204.064 189.028H196.24V185.558H203.938C205.673 185.558 207.066 185.259 208.117 184.659C209.169 184.06 209.931 183.25 210.404 182.23C210.888 181.2 211.13 180.038 211.13 178.744C211.13 177.451 210.888 176.294 210.404 175.274C209.931 174.254 209.164 173.455 208.102 172.877C207.04 172.288 205.631 171.994 203.875 171.994H196.998V200.826H193.086ZM220.775 200.826V176.599H224.371V180.259H224.624C225.065 179.06 225.865 178.087 227.021 177.341C228.178 176.594 229.482 176.221 230.933 176.221C231.206 176.221 231.548 176.226 231.958 176.237C232.368 176.247 232.678 176.263 232.889 176.284V180.069C232.762 180.038 232.473 179.99 232.021 179.927C231.58 179.854 231.112 179.817 230.617 179.817C229.44 179.817 228.388 180.064 227.463 180.558C226.548 181.042 225.822 181.715 225.286 182.577C224.76 183.429 224.498 184.402 224.498 185.495V200.826H220.775ZM246.406 201.331C244.219 201.331 242.3 200.811 240.649 199.77C239.009 198.729 237.726 197.272 236.8 195.401C235.886 193.529 235.428 191.342 235.428 188.839C235.428 186.315 235.886 184.112 236.8 182.23C237.726 180.348 239.009 178.886 240.649 177.845C242.3 176.804 244.219 176.284 246.406 176.284C248.593 176.284 250.507 176.804 252.147 177.845C253.798 178.886 255.081 180.348 255.996 182.23C256.921 184.112 257.384 186.315 257.384 188.839C257.384 191.342 256.921 193.529 255.996 195.401C255.081 197.272 253.798 198.729 252.147 199.77C250.507 200.811 248.593 201.331 246.406 201.331ZM246.406 197.987C248.067 197.987 249.434 197.561 250.507 196.71C251.579 195.858 252.373 194.738 252.889 193.35C253.404 191.962 253.662 190.458 253.662 188.839C253.662 187.22 253.404 185.711 252.889 184.312C252.373 182.914 251.579 181.783 250.507 180.921C249.434 180.059 248.067 179.628 246.406 179.628C244.745 179.628 243.378 180.059 242.305 180.921C241.233 181.783 240.439 182.914 239.923 184.312C239.408 185.711 239.15 187.22 239.15 188.839C239.15 190.458 239.408 191.962 239.923 193.35C240.439 194.738 241.233 195.858 242.305 196.71C243.378 197.561 244.745 197.987 246.406 197.987ZM273.602 176.599V179.754H261.047V176.599H273.602ZM264.706 170.795H268.429V193.886C268.429 194.938 268.581 195.727 268.886 196.252C269.202 196.768 269.601 197.115 270.085 197.293C270.579 197.462 271.1 197.546 271.646 197.546C272.057 197.546 272.393 197.525 272.656 197.483C272.919 197.43 273.129 197.388 273.287 197.356L274.044 200.7C273.792 200.795 273.439 200.89 272.987 200.984C272.535 201.089 271.962 201.142 271.268 201.142C270.216 201.142 269.186 200.916 268.176 200.464C267.178 200.011 266.347 199.323 265.684 198.397C265.032 197.472 264.706 196.305 264.706 194.896V170.795ZM288.784 201.331C286.597 201.331 284.677 200.811 283.027 199.77C281.386 198.729 280.103 197.272 279.178 195.401C278.263 193.529 277.806 191.342 277.806 188.839C277.806 186.315 278.263 184.112 279.178 182.23C280.103 180.348 281.386 178.886 283.027 177.845C284.677 176.804 286.597 176.284 288.784 176.284C290.971 176.284 292.885 176.804 294.525 177.845C296.176 178.886 297.459 180.348 298.374 182.23C299.299 184.112 299.762 186.315 299.762 188.839C299.762 191.342 299.299 193.529 298.374 195.401C297.459 197.272 296.176 198.729 294.525 199.77C292.885 200.811 290.971 201.331 288.784 201.331ZM288.784 197.987C290.445 197.987 291.812 197.561 292.885 196.71C293.957 195.858 294.751 194.738 295.266 193.35C295.782 191.962 296.039 190.458 296.039 188.839C296.039 187.22 295.782 185.711 295.266 184.312C294.751 182.914 293.957 181.783 292.885 180.921C291.812 180.059 290.445 179.628 288.784 179.628C287.122 179.628 285.755 180.059 284.683 180.921C283.61 181.783 282.816 182.914 282.301 184.312C281.786 185.711 281.528 187.22 281.528 188.839C281.528 190.458 281.786 191.962 282.301 193.35C282.816 194.738 283.61 195.858 284.683 196.71C285.755 197.561 287.122 197.987 288.784 197.987ZM315.286 201.331C313.015 201.331 311.059 200.795 309.419 199.722C307.778 198.65 306.516 197.172 305.633 195.29C304.75 193.408 304.308 191.258 304.308 188.839C304.308 186.378 304.76 184.207 305.665 182.325C306.579 180.432 307.852 178.955 309.482 177.893C311.122 176.82 313.036 176.284 315.223 176.284C316.926 176.284 318.462 176.599 319.829 177.23C321.196 177.861 322.315 178.744 323.188 179.88C324.061 181.016 324.603 182.341 324.813 183.855H321.09C320.807 182.751 320.176 181.773 319.198 180.921C318.23 180.059 316.926 179.628 315.286 179.628C313.835 179.628 312.563 180.006 311.469 180.763C310.386 181.51 309.539 182.567 308.93 183.934C308.33 185.29 308.031 186.883 308.031 188.713C308.031 190.585 308.325 192.214 308.914 193.602C309.513 194.99 310.354 196.068 311.437 196.836C312.531 197.603 313.814 197.987 315.286 197.987C316.253 197.987 317.131 197.819 317.92 197.483C318.709 197.146 319.376 196.662 319.923 196.031C320.47 195.401 320.859 194.643 321.09 193.76H324.813C324.603 195.19 324.082 196.478 323.251 197.625C322.431 198.76 321.343 199.664 319.986 200.337C318.64 201 317.074 201.331 315.286 201.331ZM340.097 201.331C337.91 201.331 335.991 200.811 334.34 199.77C332.699 198.729 331.416 197.272 330.491 195.401C329.576 193.529 329.119 191.342 329.119 188.839C329.119 186.315 329.576 184.112 330.491 182.23C331.416 180.348 332.699 178.886 334.34 177.845C335.991 176.804 337.91 176.284 340.097 176.284C342.284 176.284 344.198 176.804 345.838 177.845C347.489 178.886 348.772 180.348 349.687 182.23C350.612 184.112 351.075 186.315 351.075 188.839C351.075 191.342 350.612 193.529 349.687 195.401C348.772 197.272 347.489 198.729 345.838 199.77C344.198 200.811 342.284 201.331 340.097 201.331ZM340.097 197.987C341.758 197.987 343.125 197.561 344.198 196.71C345.27 195.858 346.064 194.738 346.579 193.35C347.095 191.962 347.352 190.458 347.352 188.839C347.352 187.22 347.095 185.711 346.579 184.312C346.064 182.914 345.27 181.783 344.198 180.921C343.125 180.059 341.758 179.628 340.097 179.628C338.435 179.628 337.068 180.059 335.996 180.921C334.923 181.783 334.129 182.914 333.614 184.312C333.099 185.711 332.841 187.22 332.841 188.839C332.841 190.458 333.099 191.962 333.614 193.35C334.129 194.738 334.923 195.858 335.996 196.71C337.068 197.561 338.435 197.987 340.097 197.987ZM360.479 168.524V200.826H356.757V168.524H360.479Z" fill="white"/>
<path d="M73.1664 106.513V119H9.72623V106.513H73.1664ZM71.7231 37.3624L15.562 119H5.01999V109.023L61.3694 27.6361H71.7231V37.3624ZM65.8874 27.6361V40.1861H5.39649V27.6361H65.8874ZM101.311 27.6361V119H85.5607V27.6361H101.311ZM156.217 27.6361L119.195 71.6238L98.1107 93.9628L95.3497 78.3381L110.41 59.7641L137.016 27.6361H156.217ZM139.275 119L109.217 75.7026L120.073 64.9723L157.974 119H139.275ZM252.726 89.2565H268.414C267.912 95.2387 266.239 100.572 263.394 105.258C260.549 109.901 256.554 113.562 251.409 116.239C246.263 118.916 240.009 120.255 232.647 120.255C226.999 120.255 221.916 119.251 217.398 117.243C212.88 115.193 209.011 112.307 205.79 108.584C202.568 104.819 200.1 100.28 198.385 94.9668C196.712 89.654 195.875 83.7136 195.875 77.1458V69.5531C195.875 62.9853 196.733 57.0449 198.448 51.7321C200.205 46.4193 202.715 41.8804 205.978 38.1154C209.241 34.3086 213.152 31.4011 217.712 29.3931C222.314 27.3851 227.48 26.3811 233.211 26.3811C240.49 26.3811 246.64 27.7198 251.66 30.3971C256.68 33.0745 260.57 36.7767 263.331 41.5039C266.134 46.231 267.849 51.6484 268.477 57.7561H252.789C252.371 53.8238 251.451 50.4562 250.028 47.6534C248.648 44.8505 246.598 42.717 243.879 41.2529C241.16 39.7469 237.604 38.9939 233.211 38.9939C229.614 38.9939 226.476 39.6632 223.799 41.0019C221.121 42.3405 218.883 44.3067 217.085 46.9004C215.286 49.494 213.926 52.6943 213.006 56.5011C212.127 60.2661 211.688 64.5749 211.688 69.4276V77.1458C211.688 81.7475 212.085 85.9308 212.88 89.6958C213.717 93.419 214.972 96.6192 216.645 99.2965C218.36 101.974 220.536 104.045 223.171 105.509C225.807 106.973 228.965 107.705 232.647 107.705C237.123 107.705 240.741 106.994 243.502 105.572C246.305 104.149 248.418 102.078 249.84 99.3593C251.304 96.5983 252.266 93.2307 252.726 89.2565ZM277.043 85.8053V84.3621C277.043 79.4676 277.754 74.9287 279.177 70.7453C280.599 66.5202 282.649 62.8598 285.326 59.7641C288.045 56.6266 291.35 54.2003 295.241 52.4851C299.173 50.7281 303.607 49.8496 308.544 49.8496C313.522 49.8496 317.956 50.7281 321.847 52.4851C325.779 54.2003 329.105 56.6266 331.824 59.7641C334.543 62.8598 336.614 66.5202 338.036 70.7453C339.459 74.9287 340.17 79.4676 340.17 84.3621V85.8053C340.17 90.6998 339.459 95.2387 338.036 99.422C336.614 103.605 334.543 107.266 331.824 110.403C329.105 113.499 325.8 115.925 321.91 117.682C318.019 119.397 313.606 120.255 308.669 120.255C303.691 120.255 299.236 119.397 295.304 117.682C291.413 115.925 288.108 113.499 285.389 110.403C282.67 107.266 280.599 103.605 279.177 99.422C277.754 95.2387 277.043 90.6998 277.043 85.8053ZM292.166 84.3621V85.8053C292.166 88.8591 292.48 91.7456 293.107 94.4648C293.735 97.184 294.718 99.5684 296.057 101.618C297.395 103.668 299.11 105.279 301.202 106.45C303.294 107.621 305.783 108.207 308.669 108.207C311.472 108.207 313.898 107.621 315.948 106.45C318.04 105.279 319.755 103.668 321.094 101.618C322.432 99.5684 323.416 97.184 324.043 94.4648C324.712 91.7456 325.047 88.8591 325.047 85.8053V84.3621C325.047 81.3501 324.712 78.5054 324.043 75.8281C323.416 73.1089 322.412 70.7035 321.031 68.6118C319.692 66.5202 317.977 64.8887 315.886 63.7173C313.836 62.5042 311.388 61.8976 308.544 61.8976C305.699 61.8976 303.231 62.5042 301.139 63.7173C299.089 64.8887 297.395 66.5202 296.057 68.6118C294.718 70.7035 293.735 73.1089 293.107 75.8281C292.48 78.5054 292.166 81.3501 292.166 84.3621ZM366.683 64.9096V119H351.56V51.1046H365.804L366.683 64.9096ZM364.236 82.5423L359.09 82.4796C359.09 77.7942 359.676 73.4645 360.847 69.4903C362.018 65.5162 363.734 62.0649 365.993 59.1366C368.252 56.1664 371.054 53.8865 374.401 52.2969C377.79 50.6654 381.701 49.8496 386.135 49.8496C389.231 49.8496 392.055 50.3098 394.607 51.2301C397.2 52.1086 399.438 53.51 401.321 55.4344C403.245 57.3587 404.709 59.8268 405.713 62.8388C406.759 65.8508 407.282 69.4903 407.282 73.7573V119H392.159V75.0751C392.159 71.7702 391.657 69.1766 390.653 67.2941C389.691 65.4116 388.29 64.0729 386.449 63.2781C384.65 62.4414 382.496 62.0231 379.986 62.0231C377.141 62.0231 374.715 62.5669 372.707 63.6546C370.741 64.7423 369.13 66.2273 367.875 68.1098C366.62 69.9923 365.7 72.1677 365.114 74.6358C364.528 77.104 364.236 79.7395 364.236 82.5423ZM406.341 78.5263L399.25 80.0951C399.25 75.9954 399.815 72.1258 400.944 68.4863C402.116 64.805 403.81 61.5838 406.027 58.8228C408.286 56.02 411.068 53.8238 414.373 52.2341C417.678 50.6444 421.463 49.8496 425.73 49.8496C429.203 49.8496 432.298 50.3307 435.017 51.2929C437.778 52.2132 440.121 53.6774 442.045 55.6854C443.97 57.6933 445.434 60.3079 446.438 63.5291C447.442 66.7084 447.944 70.5571 447.944 75.0751V119H432.758V75.0123C432.758 71.582 432.256 68.9256 431.252 67.0431C430.29 65.1606 428.91 63.8638 427.111 63.1526C425.312 62.3996 423.158 62.0231 420.648 62.0231C418.305 62.0231 416.234 62.4623 414.435 63.3408C412.678 64.1775 411.193 65.3698 409.98 66.9176C408.767 68.4236 407.847 70.1597 407.219 72.1258C406.634 74.092 406.341 76.2255 406.341 78.5263ZM477.406 64.1566V145.104H462.284V51.1046H476.214L477.406 64.1566ZM521.645 84.4248V85.7426C521.645 90.6789 521.059 95.2596 519.888 99.4848C518.758 103.668 517.064 107.329 514.805 110.466C512.588 113.562 509.848 115.967 506.585 117.682C503.322 119.397 499.557 120.255 495.29 120.255C491.065 120.255 487.363 119.481 484.183 117.933C481.046 116.344 478.389 114.106 476.214 111.219C474.039 108.333 472.282 104.944 470.943 101.054C469.646 97.1212 468.726 92.8124 468.182 88.127V83.0443C468.726 78.0661 469.646 73.5482 470.943 69.4903C472.282 65.4325 474.039 61.9394 476.214 59.0111C478.389 56.0828 481.046 53.8238 484.183 52.2341C487.321 50.6444 490.981 49.8496 495.164 49.8496C499.431 49.8496 503.217 50.6863 506.522 52.3596C509.827 53.9911 512.609 56.3338 514.868 59.3876C517.127 62.3996 518.821 66.0391 519.951 70.3061C521.08 74.5312 521.645 79.2375 521.645 84.4248ZM506.522 85.7426V84.4248C506.522 81.2873 506.229 78.3799 505.644 75.7026C505.058 72.9834 504.138 70.5989 502.883 68.5491C501.628 66.4993 500.017 64.9096 498.051 63.7801C496.127 62.6088 493.805 62.0231 491.086 62.0231C488.408 62.0231 486.108 62.4833 484.183 63.4036C482.259 64.2821 480.648 65.5162 479.351 67.1058C478.055 68.6955 477.051 70.5571 476.34 72.6906C475.628 74.7822 475.126 77.0622 474.834 79.5303V91.7038C475.336 94.7158 476.193 97.4768 477.406 99.9868C478.619 102.497 480.335 104.505 482.552 106.011C484.811 107.475 487.697 108.207 491.211 108.207C493.93 108.207 496.252 107.621 498.176 106.45C500.101 105.279 501.67 103.668 502.883 101.618C504.138 99.5266 505.058 97.1212 505.644 94.402C506.229 91.6829 506.522 88.7964 506.522 85.7426ZM548.409 64.0311V119H533.286V51.1046H547.719L548.409 64.0311ZM569.179 50.6654L569.054 64.7213C568.133 64.554 567.129 64.4285 566.042 64.3448C564.996 64.2612 563.95 64.2193 562.904 64.2193C560.311 64.2193 558.031 64.5958 556.065 65.3488C554.098 66.06 552.446 67.1058 551.107 68.4863C549.81 69.825 548.806 71.4565 548.095 73.3808C547.384 75.3052 546.966 77.4596 546.84 79.8441L543.389 80.0951C543.389 75.8281 543.807 71.8748 544.644 68.2353C545.481 64.5958 546.736 61.3956 548.409 58.6346C550.124 55.8736 552.258 53.7192 554.81 52.1714C557.403 50.6235 560.394 49.8496 563.783 49.8496C564.703 49.8496 565.686 49.9333 566.732 50.1006C567.82 50.2679 568.635 50.4562 569.179 50.6654ZM606.046 120.255C601.026 120.255 596.487 119.439 592.429 117.808C588.413 116.134 584.983 113.813 582.138 110.843C579.336 107.872 577.181 104.379 575.675 100.363C574.169 96.3473 573.416 92.0175 573.416 87.3741V84.8641C573.416 79.5512 574.19 74.7404 575.738 70.4316C577.286 66.1228 579.44 62.4414 582.201 59.3876C584.962 56.2919 588.225 53.9284 591.99 52.2969C595.755 50.6654 599.834 49.8496 604.226 49.8496C609.079 49.8496 613.325 50.6654 616.965 52.2969C620.604 53.9284 623.616 56.2292 626.001 59.1993C628.427 62.1277 630.226 65.6208 631.397 69.6786C632.61 73.7364 633.217 78.2126 633.217 83.1071V89.5703H580.758V78.7146H618.282V77.5223C618.199 74.8032 617.655 72.2513 616.651 69.8668C615.689 67.4823 614.204 65.558 612.196 64.0938C610.188 62.6297 607.51 61.8976 604.164 61.8976C601.654 61.8976 599.415 62.4414 597.449 63.5291C595.525 64.5749 593.914 66.1018 592.618 68.1098C591.321 70.1178 590.317 72.5442 589.606 75.3888C588.936 78.1916 588.602 81.3501 588.602 84.8641V87.3741C588.602 90.3442 588.999 93.1052 589.794 95.657C590.631 98.167 591.844 100.363 593.433 102.246C595.023 104.128 596.947 105.613 599.206 106.701C601.465 107.747 604.038 108.27 606.925 108.27C610.564 108.27 613.806 107.538 616.651 106.074C619.495 104.609 621.964 102.539 624.055 99.8613L632.025 107.58C630.56 109.713 628.657 111.763 626.314 113.729C623.972 115.653 621.106 117.222 617.718 118.435C614.371 119.648 610.48 120.255 606.046 120.255ZM681.818 100.614C681.818 99.1083 681.441 97.7487 680.688 96.5355C679.935 95.2805 678.492 94.151 676.359 93.147C674.267 92.143 671.171 91.2227 667.072 90.386C663.474 89.5912 660.169 88.65 657.157 87.5623C654.187 86.4328 651.635 85.0732 649.502 83.4836C647.368 81.8939 645.716 80.0114 644.544 77.8361C643.373 75.6607 642.787 73.1507 642.787 70.3061C642.787 67.5451 643.394 64.9305 644.607 62.4623C645.82 59.9942 647.556 57.8188 649.815 55.9364C652.074 54.0539 654.814 52.5688 658.036 51.4811C661.299 50.3934 664.938 49.8496 668.954 49.8496C674.643 49.8496 679.517 50.8118 683.575 52.7361C687.674 54.6186 690.812 57.1913 692.987 60.4543C695.163 63.6755 696.25 67.315 696.25 71.3728H681.128C681.128 69.574 680.667 67.9007 679.747 66.3528C678.869 64.7632 677.53 63.4873 675.731 62.5251C673.932 61.5211 671.673 61.0191 668.954 61.0191C666.36 61.0191 664.206 61.4374 662.491 62.2741C660.818 63.0689 659.563 64.1148 658.726 65.4116C657.931 66.7084 657.534 68.1307 657.534 69.6786C657.534 70.8081 657.743 71.833 658.161 72.7533C658.621 73.6318 659.374 74.4476 660.42 75.2006C661.466 75.9117 662.888 76.5811 664.687 77.2086C666.528 77.8361 668.829 78.4426 671.59 79.0283C676.777 80.116 681.232 81.5174 684.955 83.2326C688.72 84.9059 691.607 87.0812 693.615 89.7585C695.623 92.394 696.627 95.7407 696.627 99.7985C696.627 102.811 695.978 105.572 694.682 108.082C693.427 110.55 691.586 112.704 689.16 114.545C686.733 116.344 683.826 117.745 680.437 118.749C677.091 119.753 673.326 120.255 669.142 120.255C662.993 120.255 657.785 119.167 653.518 116.992C649.251 114.775 646.009 111.951 643.791 108.521C641.616 105.049 640.528 101.451 640.528 97.7278H655.149C655.316 100.531 656.09 102.769 657.471 104.442C658.893 106.074 660.65 107.266 662.742 108.019C664.875 108.73 667.072 109.086 669.331 109.086C672.05 109.086 674.33 108.73 676.17 108.019C678.011 107.266 679.412 106.262 680.375 105.007C681.337 103.71 681.818 102.246 681.818 100.614ZM746.671 100.614C746.671 99.1083 746.295 97.7487 745.542 96.5355C744.789 95.2805 743.345 94.151 741.212 93.147C739.12 92.143 736.025 91.2227 731.925 90.386C728.327 89.5912 725.022 88.65 722.01 87.5623C719.04 86.4328 716.488 85.0732 714.355 83.4836C712.221 81.8939 710.569 80.0114 709.398 77.8361C708.226 75.6607 707.641 73.1507 707.641 70.3061C707.641 67.5451 708.247 64.9305 709.46 62.4623C710.674 59.9942 712.41 57.8188 714.669 55.9364C716.928 54.0539 719.668 52.5688 722.889 51.4811C726.152 50.3934 729.791 49.8496 733.807 49.8496C739.497 49.8496 744.37 50.8118 748.428 52.7361C752.528 54.6186 755.665 57.1913 757.841 60.4543C760.016 63.6755 761.104 67.315 761.104 71.3728H745.981C745.981 69.574 745.521 67.9007 744.6 66.3528C743.722 64.7632 742.383 63.4873 740.584 62.5251C738.786 61.5211 736.527 61.0191 733.807 61.0191C731.214 61.0191 729.059 61.4374 727.344 62.2741C725.671 63.0689 724.416 64.1148 723.579 65.4116C722.784 66.7084 722.387 68.1307 722.387 69.6786C722.387 70.8081 722.596 71.833 723.014 72.7533C723.475 73.6318 724.228 74.4476 725.273 75.2006C726.319 75.9117 727.742 76.5811 729.54 77.2086C731.381 77.8361 733.682 78.4426 736.443 79.0283C741.63 80.116 746.085 81.5174 749.809 83.2326C753.574 84.9059 756.46 87.0812 758.468 89.7585C760.476 92.394 761.48 95.7407 761.48 99.7985C761.48 102.811 760.832 105.572 759.535 108.082C758.28 110.55 756.439 112.704 754.013 114.545C751.586 116.344 748.679 117.745 745.291 118.749C741.944 119.753 738.179 120.255 733.996 120.255C727.846 120.255 722.638 119.167 718.371 116.992C714.104 114.775 710.862 111.951 708.645 108.521C706.469 105.049 705.382 101.451 705.382 97.7278H720.002C720.17 100.531 720.944 102.769 722.324 104.442C723.746 106.074 725.503 107.266 727.595 108.019C729.729 108.73 731.925 109.086 734.184 109.086C736.903 109.086 739.183 108.73 741.024 108.019C742.864 107.266 744.266 106.262 745.228 105.007C746.19 103.71 746.671 102.246 746.671 100.614ZM789.625 51.1046V119H774.439V51.1046H789.625ZM773.435 33.2836C773.435 30.9828 774.188 29.0794 775.694 27.5734C777.242 26.0256 779.376 25.2516 782.095 25.2516C784.772 25.2516 786.885 26.0256 788.432 27.5734C789.98 29.0794 790.754 30.9828 790.754 33.2836C790.754 35.5426 789.98 37.4251 788.432 38.9311C786.885 40.4371 784.772 41.1901 782.095 41.1901C779.376 41.1901 777.242 40.4371 775.694 38.9311C774.188 37.4251 773.435 35.5426 773.435 33.2836ZM802.019 85.8053V84.3621C802.019 79.4676 802.73 74.9287 804.153 70.7453C805.575 66.5202 807.625 62.8598 810.302 59.7641C813.021 56.6266 816.326 54.2003 820.216 52.4851C824.149 50.7281 828.583 49.8496 833.519 49.8496C838.498 49.8496 842.932 50.7281 846.822 52.4851C850.755 54.2003 854.081 56.6266 856.8 59.7641C859.519 62.8598 861.59 66.5202 863.012 70.7453C864.434 74.9287 865.145 79.4676 865.145 84.3621V85.8053C865.145 90.6998 864.434 95.2387 863.012 99.422C861.59 103.605 859.519 107.266 856.8 110.403C854.081 113.499 850.776 115.925 846.885 117.682C842.995 119.397 838.581 120.255 833.645 120.255C828.667 120.255 824.212 119.397 820.279 117.682C816.389 115.925 813.084 113.499 810.365 110.403C807.646 107.266 805.575 103.605 804.153 99.422C802.73 95.2387 802.019 90.6998 802.019 85.8053ZM817.142 84.3621V85.8053C817.142 88.8591 817.455 91.7456 818.083 94.4648C818.71 97.184 819.694 99.5684 821.032 101.618C822.371 103.668 824.086 105.279 826.178 106.45C828.269 107.621 830.758 108.207 833.645 108.207C836.448 108.207 838.874 107.621 840.924 106.45C843.016 105.279 844.731 103.668 846.069 101.618C847.408 99.5684 848.391 97.184 849.019 94.4648C849.688 91.7456 850.023 88.8591 850.023 85.8053V84.3621C850.023 81.3501 849.688 78.5054 849.019 75.8281C848.391 73.1089 847.387 70.7035 846.007 68.6118C844.668 66.5202 842.953 64.8887 840.861 63.7173C838.811 62.5042 836.364 61.8976 833.519 61.8976C830.675 61.8976 828.207 62.5042 826.115 63.7173C824.065 64.8887 822.371 66.5202 821.032 68.6118C819.694 70.7035 818.71 73.1089 818.083 75.8281C817.455 78.5054 817.142 81.3501 817.142 84.3621ZM891.533 65.5998V119H876.41V51.1046H890.655L891.533 65.5998ZM888.835 82.5423L883.94 82.4796C883.982 77.6687 884.651 73.2553 885.948 69.2393C887.287 65.2233 889.128 61.7721 891.47 58.8856C893.855 55.9991 896.699 53.7819 900.004 52.2341C903.309 50.6444 906.99 49.8496 911.048 49.8496C914.311 49.8496 917.26 50.3098 919.896 51.2301C922.573 52.1086 924.853 53.5519 926.736 55.5599C928.66 57.5678 930.124 60.1824 931.128 63.4036C932.132 66.5829 932.634 70.4943 932.634 75.1378V119H917.449V75.0751C917.449 71.8121 916.968 69.2393 916.005 67.3568C915.085 65.4325 913.726 64.0729 911.927 63.2781C910.17 62.4414 907.974 62.0231 905.338 62.0231C902.744 62.0231 900.423 62.5669 898.373 63.6546C896.323 64.7423 894.587 66.2273 893.165 68.1098C891.784 69.9923 890.717 72.1677 889.964 74.6358C889.211 77.104 888.835 79.7395 888.835 82.5423Z" fill="white"/>
</svg>
