<svg width="360" height="500" viewBox="0 0 360 500" fill="none" xmlns="http://www.w3.org/2000/svg">
<path d="M218.446 55.0984L150.37 302.518C147.237 313.907 130.002 311.701 130.002 299.911V43.7766C130.002 19.5995 150.143 0 174.989 0C204.566 0 226.096 27.2969 218.446 55.0984Z" fill="#0066FF"/>
<path d="M341.482 181.431L181.885 330.283C173.549 338.057 160.737 328.096 166.4 318.244L274.827 129.609C287.789 107.058 317.932 101.12 338.548 117.056C359.241 133.052 360.632 163.57 341.482 181.431Z" fill="#0066FF"/>
<path d="M321.272 370.001L200.159 370.001C189.459 370.001 186.054 355.113 195.624 350.175L303.951 294.272C329.704 280.983 360.003 300.31 360.003 330.026C360.003 352.104 342.663 370.001 321.272 370.001Z" fill="#0066FF"/>
<path fill-rule="evenodd" clip-rule="evenodd" d="M35.0025 1.5299e-06C54.3324 6.84958e-07 70.0024 15.67 70.0024 34.9999L70.0025 464.999C70.0025 484.329 54.3325 499.999 35.0025 499.999C15.6726 499.999 0.00254936 484.329 0.00254852 464.999L0.00252972 35C0.00252888 15.67 15.6725 2.37484e-06 35.0025 1.5299e-06Z" fill="#0066FF"/>
<path fill-rule="evenodd" clip-rule="evenodd" d="M360.001 465C360.001 484.33 344.331 500 325.001 500L35.0012 500C15.6713 500 0.00128174 484.33 0.00128174 465C0.00128174 445.67 15.6713 430 35.0012 430L325.001 430C344.331 430 360.001 445.67 360.001 465Z" fill="#0066FF"/>
</svg>
