<svg width="528" height="460" viewBox="0 0 528 460" fill="none" xmlns="http://www.w3.org/2000/svg">
<g clip-path="url(#clip0_6268_1595)">
<path d="M525.236 362.677L438.081 453.735C436.187 455.713 433.894 457.29 431.347 458.368C428.799 459.446 426.051 460.002 423.275 460H10.1181C8.14665 460 6.21821 459.439 4.56969 458.386C2.92115 457.333 1.62432 455.833 0.838538 454.072C0.0527552 452.311 -0.187754 450.364 0.146563 448.471C0.48088 446.578 1.37546 444.822 2.72039 443.418L89.941 352.36C91.8306 350.387 94.1155 348.813 96.6544 347.736C99.1938 346.658 101.933 346.1 104.703 346.095H517.837C519.808 346.095 521.736 346.657 523.386 347.709C525.033 348.763 526.329 350.262 527.118 352.023C527.902 353.785 528.143 355.731 527.808 357.624C527.474 359.517 526.58 361.273 525.236 362.677ZM438.081 179.312C436.187 177.334 433.894 175.757 431.347 174.679C428.799 173.602 426.051 173.046 423.275 173.048H10.1181C8.14665 173.048 6.21821 173.609 4.56969 174.662C2.92115 175.715 1.62432 177.214 0.838538 178.976C0.0527552 180.737 -0.187754 182.684 0.146563 184.577C0.48088 186.469 1.37546 188.225 2.72039 189.63L89.941 280.688C91.8306 282.661 94.1155 284.234 96.6544 285.312C99.1938 286.389 101.933 286.948 104.703 286.952H517.837C519.808 286.952 521.736 286.391 523.386 285.338C525.033 284.285 526.329 282.786 527.118 281.024C527.902 279.263 528.143 277.316 527.808 275.423C527.474 273.531 526.58 271.775 525.236 270.37L438.081 179.312ZM10.1181 113.905H423.275C426.051 113.906 428.799 113.351 431.347 112.273C433.894 111.195 436.187 109.618 438.081 107.64L525.236 16.5819C526.58 15.1778 527.474 13.4214 527.808 11.5287C528.143 9.63606 527.902 7.68947 527.118 5.92815C526.329 4.16682 525.033 2.66746 523.386 1.6143C521.736 0.561142 519.808 6.48569e-05 517.837 0H104.703C101.933 0.00459162 99.1938 0.562972 96.6544 1.64057C94.1155 2.71817 91.8306 4.29205 89.941 6.26478L2.74287 97.3229C1.39924 98.7254 0.505058 100.48 0.169983 102.37C-0.165092 104.261 0.073508 106.206 0.85652 107.967C1.63953 109.727 2.93292 111.226 4.57807 112.281C6.22323 113.336 8.14859 113.9 10.1181 113.905Z" fill="url(#paint0_linear_6268_1595)"/>
</g>
<defs>
<linearGradient id="paint0_linear_6268_1595" x1="44.5655" y1="470.963" x2="465.192" y2="-15.7666" gradientUnits="userSpaceOnUse">
<stop offset="0.08" stop-color="#9945FF"/>
<stop offset="0.3" stop-color="#8752F3"/>
<stop offset="0.5" stop-color="#5497D5"/>
<stop offset="0.6" stop-color="#43B4CA"/>
<stop offset="0.72" stop-color="#28E0B9"/>
<stop offset="0.97" stop-color="#19FB9B"/>
</linearGradient>
<clipPath id="clip0_6268_1595">
<rect width="527.955" height="460" fill="white"/>
</clipPath>
</defs>
</svg>
